<mxfile host="app.diagrams.net" agent="Mozilla/5.0 (Windows NT 10.0; Win64; x64) AppleWebKit/537.36 (KHTML, like Gecko) Chrome/129.0.0.0 Safari/537.36" version="24.7.17">
  <diagram name="Página-1" id="I-widoFrko3qVOfymmTe">
    <mxGraphModel dx="1434" dy="1907" grid="1" gridSize="10" guides="1" tooltips="1" connect="1" arrows="1" fold="1" page="1" pageScale="1" pageWidth="827" pageHeight="1169" math="0" shadow="0">
      <root>
        <mxCell id="0" />
        <mxCell id="1" parent="0" />
        <mxCell id="zI4fZh5RJkNvRMevT8qB-2" value="&lt;u&gt;Nº&lt;/u&gt;" style="rounded=0;whiteSpace=wrap;html=1;" parent="1" vertex="1">
          <mxGeometry x="240" y="200" width="120" height="40" as="geometry" />
        </mxCell>
        <mxCell id="zI4fZh5RJkNvRMevT8qB-3" value="&lt;font style=&quot;font-size: 14px;&quot;&gt;Butaca&lt;/font&gt;" style="text;html=1;align=center;verticalAlign=middle;resizable=0;points=[];autosize=1;strokeColor=none;fillColor=none;" parent="1" vertex="1">
          <mxGeometry x="170" y="205" width="70" height="30" as="geometry" />
        </mxCell>
        <mxCell id="zI4fZh5RJkNvRMevT8qB-4" value="&lt;u&gt;Sala_Nº&lt;/u&gt;" style="rounded=0;whiteSpace=wrap;html=1;" parent="1" vertex="1">
          <mxGeometry x="360" y="200" width="120" height="40" as="geometry" />
        </mxCell>
        <mxCell id="zI4fZh5RJkNvRMevT8qB-5" value="&lt;font style=&quot;font-size: 24px;&quot;&gt;---------&lt;/font&gt;" style="text;html=1;align=center;verticalAlign=middle;resizable=0;points=[];autosize=1;strokeColor=none;fillColor=none;rotation=180;" parent="1" vertex="1">
          <mxGeometry x="370" y="230" width="100" height="40" as="geometry" />
        </mxCell>
        <mxCell id="zI4fZh5RJkNvRMevT8qB-7" value="&lt;u&gt;Nº&lt;/u&gt;" style="rounded=0;whiteSpace=wrap;html=1;" parent="1" vertex="1">
          <mxGeometry x="240" y="120" width="120" height="40" as="geometry" />
        </mxCell>
        <mxCell id="zI4fZh5RJkNvRMevT8qB-8" value="&lt;font style=&quot;font-size: 14px;&quot;&gt;Sala&lt;/font&gt;" style="text;html=1;align=center;verticalAlign=middle;resizable=0;points=[];autosize=1;strokeColor=none;fillColor=none;" parent="1" vertex="1">
          <mxGeometry x="180" y="125" width="50" height="30" as="geometry" />
        </mxCell>
        <mxCell id="zI4fZh5RJkNvRMevT8qB-17" value="&lt;u&gt;Título&lt;/u&gt;" style="rounded=0;whiteSpace=wrap;html=1;" parent="1" vertex="1">
          <mxGeometry x="240" y="-40" width="120" height="40" as="geometry" />
        </mxCell>
        <mxCell id="zI4fZh5RJkNvRMevT8qB-18" value="&lt;font style=&quot;font-size: 14px;&quot;&gt;Pelicula&lt;/font&gt;" style="text;html=1;align=center;verticalAlign=middle;resizable=0;points=[];autosize=1;strokeColor=none;fillColor=none;" parent="1" vertex="1">
          <mxGeometry x="170" y="-35" width="70" height="30" as="geometry" />
        </mxCell>
        <mxCell id="zI4fZh5RJkNvRMevT8qB-19" value="Resumen" style="rounded=0;whiteSpace=wrap;html=1;" parent="1" vertex="1">
          <mxGeometry x="360" y="-40" width="120" height="40" as="geometry" />
        </mxCell>
        <mxCell id="zI4fZh5RJkNvRMevT8qB-23" value="Imagen" style="rounded=0;whiteSpace=wrap;html=1;" parent="1" vertex="1">
          <mxGeometry x="480" y="-40" width="120" height="40" as="geometry" />
        </mxCell>
        <mxCell id="zI4fZh5RJkNvRMevT8qB-24" value="Link IMDB" style="rounded=0;whiteSpace=wrap;html=1;" parent="1" vertex="1">
          <mxGeometry x="600" y="-40" width="120" height="40" as="geometry" />
        </mxCell>
        <mxCell id="zI4fZh5RJkNvRMevT8qB-25" value="Trailer" style="rounded=0;whiteSpace=wrap;html=1;" parent="1" vertex="1">
          <mxGeometry x="720" y="-40" width="120" height="40" as="geometry" />
        </mxCell>
        <mxCell id="zI4fZh5RJkNvRMevT8qB-27" value="&lt;font style=&quot;font-size: 14px;&quot;&gt;Sesión&lt;/font&gt;" style="text;html=1;align=center;verticalAlign=middle;resizable=0;points=[];autosize=1;strokeColor=none;fillColor=none;" parent="1" vertex="1">
          <mxGeometry x="170" y="45" width="70" height="30" as="geometry" />
        </mxCell>
        <mxCell id="zI4fZh5RJkNvRMevT8qB-28" value="Precio" style="rounded=0;whiteSpace=wrap;html=1;" parent="1" vertex="1">
          <mxGeometry x="240" y="40" width="120" height="40" as="geometry" />
        </mxCell>
        <mxCell id="zI4fZh5RJkNvRMevT8qB-29" value="&lt;u&gt;Hora&lt;/u&gt;" style="rounded=0;whiteSpace=wrap;html=1;" parent="1" vertex="1">
          <mxGeometry x="360" y="40" width="120" height="40" as="geometry" />
        </mxCell>
        <mxCell id="zI4fZh5RJkNvRMevT8qB-30" value="Tit_Pel" style="rounded=0;whiteSpace=wrap;html=1;" parent="1" vertex="1">
          <mxGeometry x="600" y="40" width="120" height="40" as="geometry" />
        </mxCell>
        <mxCell id="zI4fZh5RJkNvRMevT8qB-31" value="&lt;u&gt;N_Sala&lt;/u&gt;" style="rounded=0;whiteSpace=wrap;html=1;" parent="1" vertex="1">
          <mxGeometry x="480" y="40" width="120" height="40" as="geometry" />
        </mxCell>
        <mxCell id="zI4fZh5RJkNvRMevT8qB-38" value="&lt;u&gt;ID&lt;/u&gt;" style="rounded=0;whiteSpace=wrap;html=1;" parent="1" vertex="1">
          <mxGeometry x="240" y="360" width="120" height="40" as="geometry" />
        </mxCell>
        <mxCell id="zI4fZh5RJkNvRMevT8qB-39" value="&lt;font style=&quot;font-size: 14px;&quot;&gt;Entrada&lt;/font&gt;" style="text;html=1;align=center;verticalAlign=middle;resizable=0;points=[];autosize=1;strokeColor=none;fillColor=none;" parent="1" vertex="1">
          <mxGeometry x="170" y="365" width="70" height="30" as="geometry" />
        </mxCell>
        <mxCell id="zI4fZh5RJkNvRMevT8qB-40" value="Correo" style="rounded=0;whiteSpace=wrap;html=1;" parent="1" vertex="1">
          <mxGeometry x="360" y="360" width="120" height="40" as="geometry" />
        </mxCell>
        <mxCell id="zI4fZh5RJkNvRMevT8qB-41" value="N_Sala" style="rounded=0;whiteSpace=wrap;html=1;" parent="1" vertex="1">
          <mxGeometry x="480" y="360" width="120" height="40" as="geometry" />
        </mxCell>
        <mxCell id="zI4fZh5RJkNvRMevT8qB-44" value="Sesion_Hora" style="rounded=0;whiteSpace=wrap;html=1;" parent="1" vertex="1">
          <mxGeometry x="600" y="360" width="120" height="40" as="geometry" />
        </mxCell>
        <mxCell id="zI4fZh5RJkNvRMevT8qB-51" value="&lt;u&gt;Nombre&lt;/u&gt;" style="rounded=0;whiteSpace=wrap;html=1;" parent="1" vertex="1">
          <mxGeometry x="240" y="520" width="120" height="40" as="geometry" />
        </mxCell>
        <mxCell id="zI4fZh5RJkNvRMevT8qB-52" value="&lt;font style=&quot;font-size: 14px;&quot;&gt;Producto&lt;/font&gt;" style="text;html=1;align=center;verticalAlign=middle;resizable=0;points=[];autosize=1;strokeColor=none;fillColor=none;" parent="1" vertex="1">
          <mxGeometry x="165" y="525" width="80" height="30" as="geometry" />
        </mxCell>
        <mxCell id="zI4fZh5RJkNvRMevT8qB-53" value="Precio" style="rounded=0;whiteSpace=wrap;html=1;" parent="1" vertex="1">
          <mxGeometry x="360" y="520" width="120" height="40" as="geometry" />
        </mxCell>
        <mxCell id="zI4fZh5RJkNvRMevT8qB-55" value="&lt;font style=&quot;font-size: 24px;&quot;&gt;---------&lt;/font&gt;" style="text;html=1;align=center;verticalAlign=middle;resizable=0;points=[];autosize=1;strokeColor=none;fillColor=none;rotation=180;" parent="1" vertex="1">
          <mxGeometry x="490" y="390" width="100" height="40" as="geometry" />
        </mxCell>
        <mxCell id="zI4fZh5RJkNvRMevT8qB-57" value="&lt;font style=&quot;font-size: 24px;&quot;&gt;---------&lt;/font&gt;" style="text;html=1;align=center;verticalAlign=middle;resizable=0;points=[];autosize=1;strokeColor=none;fillColor=none;rotation=180;" parent="1" vertex="1">
          <mxGeometry x="610" y="390" width="100" height="40" as="geometry" />
        </mxCell>
        <mxCell id="zI4fZh5RJkNvRMevT8qB-60" value="&lt;u&gt;Correo&lt;/u&gt;" style="rounded=0;whiteSpace=wrap;html=1;" parent="1" vertex="1">
          <mxGeometry x="240" y="600" width="120" height="40" as="geometry" />
        </mxCell>
        <mxCell id="zI4fZh5RJkNvRMevT8qB-61" value="&lt;font style=&quot;font-size: 14px;&quot;&gt;Cliente&lt;/font&gt;" style="text;html=1;align=center;verticalAlign=middle;resizable=0;points=[];autosize=1;strokeColor=none;fillColor=none;" parent="1" vertex="1">
          <mxGeometry x="170" y="605" width="70" height="30" as="geometry" />
        </mxCell>
        <mxCell id="zI4fZh5RJkNvRMevT8qB-62" value="Contraseña" style="rounded=0;whiteSpace=wrap;html=1;" parent="1" vertex="1">
          <mxGeometry x="360" y="600" width="120" height="40" as="geometry" />
        </mxCell>
        <mxCell id="zI4fZh5RJkNvRMevT8qB-63" value="Nombre" style="rounded=0;whiteSpace=wrap;html=1;" parent="1" vertex="1">
          <mxGeometry x="480" y="600" width="120" height="40" as="geometry" />
        </mxCell>
        <mxCell id="zI4fZh5RJkNvRMevT8qB-64" value="&lt;u&gt;Correo&lt;/u&gt;" style="rounded=0;whiteSpace=wrap;html=1;" parent="1" vertex="1">
          <mxGeometry x="240" y="680" width="120" height="40" as="geometry" />
        </mxCell>
        <mxCell id="zI4fZh5RJkNvRMevT8qB-65" value="&lt;font style=&quot;font-size: 14px;&quot;&gt;Administrador&lt;/font&gt;" style="text;html=1;align=center;verticalAlign=middle;resizable=0;points=[];autosize=1;strokeColor=none;fillColor=none;" parent="1" vertex="1">
          <mxGeometry x="130" y="685" width="110" height="30" as="geometry" />
        </mxCell>
        <mxCell id="zI4fZh5RJkNvRMevT8qB-66" value="Contraseña" style="rounded=0;whiteSpace=wrap;html=1;" parent="1" vertex="1">
          <mxGeometry x="360" y="680" width="120" height="40" as="geometry" />
        </mxCell>
        <mxCell id="zI4fZh5RJkNvRMevT8qB-67" value="Nombre" style="rounded=0;whiteSpace=wrap;html=1;" parent="1" vertex="1">
          <mxGeometry x="480" y="680" width="120" height="40" as="geometry" />
        </mxCell>
        <mxCell id="TQbPOE4HX6ufHtz-mURT-1" value="&lt;u&gt;ID_Entrada&lt;/u&gt;" style="rounded=0;whiteSpace=wrap;html=1;" parent="1" vertex="1">
          <mxGeometry x="240" y="440" width="120" height="40" as="geometry" />
        </mxCell>
        <mxCell id="TQbPOE4HX6ufHtz-mURT-2" value="&lt;font style=&quot;font-size: 14px;&quot;&gt;Prod_Ent&lt;/font&gt;" style="text;html=1;align=center;verticalAlign=middle;resizable=0;points=[];autosize=1;strokeColor=none;fillColor=none;" parent="1" vertex="1">
          <mxGeometry x="165" y="445" width="80" height="30" as="geometry" />
        </mxCell>
        <mxCell id="TQbPOE4HX6ufHtz-mURT-3" value="&lt;u&gt;Nombre_Prod&lt;/u&gt;" style="rounded=0;whiteSpace=wrap;html=1;" parent="1" vertex="1">
          <mxGeometry x="360" y="440" width="120" height="40" as="geometry" />
        </mxCell>
        <mxCell id="TQbPOE4HX6ufHtz-mURT-10" value="&lt;font style=&quot;font-size: 24px;&quot;&gt;---------&lt;/font&gt;" style="text;html=1;align=center;verticalAlign=middle;resizable=0;points=[];autosize=1;strokeColor=none;fillColor=none;rotation=180;" parent="1" vertex="1">
          <mxGeometry x="250" y="470" width="100" height="40" as="geometry" />
        </mxCell>
        <mxCell id="TQbPOE4HX6ufHtz-mURT-11" value="&lt;font style=&quot;font-size: 24px;&quot;&gt;---------&lt;/font&gt;" style="text;html=1;align=center;verticalAlign=middle;resizable=0;points=[];autosize=1;strokeColor=none;fillColor=none;rotation=180;" parent="1" vertex="1">
          <mxGeometry x="364" y="470" width="100" height="40" as="geometry" />
        </mxCell>
        <mxCell id="TQbPOE4HX6ufHtz-mURT-12" value="" style="endArrow=classic;html=1;rounded=0;exitX=1;exitY=0.5;exitDx=0;exitDy=0;entryX=0.5;entryY=0;entryDx=0;entryDy=0;" parent="1" source="TQbPOE4HX6ufHtz-mURT-3" target="zI4fZh5RJkNvRMevT8qB-51" edge="1">
          <mxGeometry width="50" height="50" relative="1" as="geometry">
            <mxPoint x="600" y="590" as="sourcePoint" />
            <mxPoint x="650" y="540" as="targetPoint" />
            <Array as="points">
              <mxPoint x="520" y="460" />
              <mxPoint x="520" y="500" />
              <mxPoint x="300" y="500" />
            </Array>
          </mxGeometry>
        </mxCell>
        <mxCell id="TQbPOE4HX6ufHtz-mURT-13" value="" style="endArrow=classic;html=1;rounded=0;entryX=0.5;entryY=1;entryDx=0;entryDy=0;exitX=0.5;exitY=0;exitDx=0;exitDy=0;" parent="1" source="TQbPOE4HX6ufHtz-mURT-1" target="zI4fZh5RJkNvRMevT8qB-38" edge="1">
          <mxGeometry width="50" height="50" relative="1" as="geometry">
            <mxPoint x="600" y="590" as="sourcePoint" />
            <mxPoint x="650" y="540" as="targetPoint" />
          </mxGeometry>
        </mxCell>
        <mxCell id="TQbPOE4HX6ufHtz-mURT-15" value="&lt;u&gt;ID_Ent&lt;/u&gt;" style="rounded=0;whiteSpace=wrap;html=1;" parent="1" vertex="1">
          <mxGeometry x="240" y="280" width="120" height="40" as="geometry" />
        </mxCell>
        <mxCell id="TQbPOE4HX6ufHtz-mURT-16" value="&lt;font style=&quot;font-size: 14px;&quot;&gt;Ent_But&lt;/font&gt;" style="text;html=1;align=center;verticalAlign=middle;resizable=0;points=[];autosize=1;strokeColor=none;fillColor=none;" parent="1" vertex="1">
          <mxGeometry x="170" y="285" width="70" height="30" as="geometry" />
        </mxCell>
        <mxCell id="TQbPOE4HX6ufHtz-mURT-17" value="&lt;u&gt;N_But&lt;/u&gt;" style="rounded=0;whiteSpace=wrap;html=1;" parent="1" vertex="1">
          <mxGeometry x="360" y="280" width="120" height="40" as="geometry" />
        </mxCell>
        <mxCell id="TQbPOE4HX6ufHtz-mURT-19" value="&lt;font style=&quot;font-size: 24px;&quot;&gt;---------&lt;/font&gt;" style="text;html=1;align=center;verticalAlign=middle;resizable=0;points=[];autosize=1;strokeColor=none;fillColor=none;rotation=180;" parent="1" vertex="1">
          <mxGeometry x="250" y="310" width="100" height="40" as="geometry" />
        </mxCell>
        <mxCell id="TQbPOE4HX6ufHtz-mURT-20" value="&lt;font style=&quot;font-size: 24px;&quot;&gt;---------&lt;/font&gt;" style="text;html=1;align=center;verticalAlign=middle;resizable=0;points=[];autosize=1;strokeColor=none;fillColor=none;rotation=180;" parent="1" vertex="1">
          <mxGeometry x="370" y="310" width="100" height="40" as="geometry" />
        </mxCell>
        <mxCell id="TQbPOE4HX6ufHtz-mURT-21" value="" style="endArrow=classic;html=1;rounded=0;exitX=0.5;exitY=0;exitDx=0;exitDy=0;entryX=0.5;entryY=1;entryDx=0;entryDy=0;" parent="1" source="TQbPOE4HX6ufHtz-mURT-17" target="zI4fZh5RJkNvRMevT8qB-2" edge="1">
          <mxGeometry width="50" height="50" relative="1" as="geometry">
            <mxPoint x="540" y="290" as="sourcePoint" />
            <mxPoint x="590" y="240" as="targetPoint" />
            <Array as="points">
              <mxPoint x="420" y="260" />
              <mxPoint x="300" y="260" />
            </Array>
          </mxGeometry>
        </mxCell>
        <mxCell id="TQbPOE4HX6ufHtz-mURT-22" value="" style="endArrow=classic;html=1;rounded=0;exitX=0.75;exitY=1;exitDx=0;exitDy=0;entryX=0.75;entryY=0;entryDx=0;entryDy=0;" parent="1" source="TQbPOE4HX6ufHtz-mURT-15" target="zI4fZh5RJkNvRMevT8qB-38" edge="1">
          <mxGeometry width="50" height="50" relative="1" as="geometry">
            <mxPoint x="600" y="310" as="sourcePoint" />
            <mxPoint x="320" y="340" as="targetPoint" />
            <Array as="points">
              <mxPoint x="350" y="340" />
            </Array>
          </mxGeometry>
        </mxCell>
        <mxCell id="TQbPOE4HX6ufHtz-mURT-23" value="" style="endArrow=classic;html=1;rounded=0;exitX=0.5;exitY=0;exitDx=0;exitDy=0;entryX=1;entryY=0.5;entryDx=0;entryDy=0;" parent="1" source="zI4fZh5RJkNvRMevT8qB-4" target="zI4fZh5RJkNvRMevT8qB-7" edge="1">
          <mxGeometry width="50" height="50" relative="1" as="geometry">
            <mxPoint x="460" y="110" as="sourcePoint" />
            <mxPoint x="510" y="60" as="targetPoint" />
            <Array as="points">
              <mxPoint x="420" y="140" />
            </Array>
          </mxGeometry>
        </mxCell>
        <mxCell id="TQbPOE4HX6ufHtz-mURT-24" value="" style="endArrow=none;html=1;rounded=0;entryX=0.5;entryY=1;entryDx=0;entryDy=0;" parent="1" target="zI4fZh5RJkNvRMevT8qB-31" edge="1">
          <mxGeometry width="50" height="50" relative="1" as="geometry">
            <mxPoint x="420" y="140" as="sourcePoint" />
            <mxPoint x="510" y="60" as="targetPoint" />
            <Array as="points">
              <mxPoint x="540" y="140" />
            </Array>
          </mxGeometry>
        </mxCell>
        <mxCell id="TQbPOE4HX6ufHtz-mURT-25" value="" style="endArrow=classic;html=1;rounded=0;exitX=0.5;exitY=0;exitDx=0;exitDy=0;entryX=0.5;entryY=1;entryDx=0;entryDy=0;" parent="1" source="zI4fZh5RJkNvRMevT8qB-30" target="zI4fZh5RJkNvRMevT8qB-17" edge="1">
          <mxGeometry width="50" height="50" relative="1" as="geometry">
            <mxPoint x="600" y="110" as="sourcePoint" />
            <mxPoint x="650" y="60" as="targetPoint" />
            <Array as="points">
              <mxPoint x="660" y="20" />
              <mxPoint x="300" y="20" />
            </Array>
          </mxGeometry>
        </mxCell>
        <mxCell id="TQbPOE4HX6ufHtz-mURT-26" value="&lt;font style=&quot;font-size: 24px;&quot;&gt;---------&lt;/font&gt;" style="text;html=1;align=center;verticalAlign=middle;resizable=0;points=[];autosize=1;strokeColor=none;fillColor=none;rotation=180;" parent="1" vertex="1">
          <mxGeometry x="490" y="70" width="100" height="40" as="geometry" />
        </mxCell>
        <mxCell id="TQbPOE4HX6ufHtz-mURT-27" value="&lt;font style=&quot;font-size: 24px;&quot;&gt;---------&lt;/font&gt;" style="text;html=1;align=center;verticalAlign=middle;resizable=0;points=[];autosize=1;strokeColor=none;fillColor=none;rotation=180;" parent="1" vertex="1">
          <mxGeometry x="610" y="70" width="100" height="40" as="geometry" />
        </mxCell>
        <mxCell id="TQbPOE4HX6ufHtz-mURT-30" value="" style="endArrow=classic;html=1;rounded=0;exitX=0.5;exitY=0;exitDx=0;exitDy=0;entryX=0.5;entryY=1;entryDx=0;entryDy=0;" parent="1" source="zI4fZh5RJkNvRMevT8qB-44" target="zI4fZh5RJkNvRMevT8qB-29" edge="1">
          <mxGeometry width="50" height="50" relative="1" as="geometry">
            <mxPoint x="560" y="270" as="sourcePoint" />
            <mxPoint x="610" y="220" as="targetPoint" />
            <Array as="points">
              <mxPoint x="660" y="120" />
              <mxPoint x="420" y="120" />
            </Array>
          </mxGeometry>
        </mxCell>
        <mxCell id="uSYmMhUqXVfEICmiXRDF-1" value="&lt;font style=&quot;font-size: 24px;&quot;&gt;---------&lt;/font&gt;" style="text;html=1;align=center;verticalAlign=middle;resizable=0;points=[];autosize=1;strokeColor=none;fillColor=none;rotation=180;" parent="1" vertex="1">
          <mxGeometry x="370" y="390" width="100" height="40" as="geometry" />
        </mxCell>
        <mxCell id="uSYmMhUqXVfEICmiXRDF-2" value="" style="endArrow=classic;html=1;rounded=0;exitX=0.6;exitY=0.75;exitDx=0;exitDy=0;exitPerimeter=0;" parent="1" source="uSYmMhUqXVfEICmiXRDF-1" edge="1">
          <mxGeometry width="50" height="50" relative="1" as="geometry">
            <mxPoint x="599" y="485" as="sourcePoint" />
            <mxPoint x="300" y="600" as="targetPoint" />
            <Array as="points">
              <mxPoint x="410" y="430" />
              <mxPoint x="660" y="430" />
              <mxPoint x="660" y="570" />
              <mxPoint x="300" y="570" />
            </Array>
          </mxGeometry>
        </mxCell>
        <mxCell id="uSYmMhUqXVfEICmiXRDF-3" value="" style="endArrow=classic;html=1;rounded=0;exitX=0.75;exitY=0;exitDx=0;exitDy=0;entryX=0.21;entryY=0.875;entryDx=0;entryDy=0;entryPerimeter=0;" parent="1" source="zI4fZh5RJkNvRMevT8qB-41" target="TQbPOE4HX6ufHtz-mURT-26" edge="1">
          <mxGeometry width="50" height="50" relative="1" as="geometry">
            <mxPoint x="310" y="450" as="sourcePoint" />
            <mxPoint x="540" y="140" as="targetPoint" />
          </mxGeometry>
        </mxCell>
        <mxCell id="rThKtoYGeNJ0HFsXFbk3-1" value="&lt;u&gt;ID&lt;/u&gt;" style="rounded=0;whiteSpace=wrap;html=1;" vertex="1" parent="1">
          <mxGeometry x="240" y="750" width="120" height="40" as="geometry" />
        </mxCell>
        <mxCell id="rThKtoYGeNJ0HFsXFbk3-2" value="&lt;font style=&quot;font-size: 14px;&quot;&gt;Comentario&lt;/font&gt;" style="text;html=1;align=center;verticalAlign=middle;resizable=0;points=[];autosize=1;strokeColor=none;fillColor=none;" vertex="1" parent="1">
          <mxGeometry x="135" y="755" width="100" height="30" as="geometry" />
        </mxCell>
        <mxCell id="rThKtoYGeNJ0HFsXFbk3-3" value="Texto" style="rounded=0;whiteSpace=wrap;html=1;" vertex="1" parent="1">
          <mxGeometry x="360" y="750" width="120" height="40" as="geometry" />
        </mxCell>
        <mxCell id="rThKtoYGeNJ0HFsXFbk3-4" value="Fecha" style="rounded=0;whiteSpace=wrap;html=1;" vertex="1" parent="1">
          <mxGeometry x="480" y="750" width="120" height="40" as="geometry" />
        </mxCell>
        <mxCell id="rThKtoYGeNJ0HFsXFbk3-5" value="Usuario" style="rounded=0;whiteSpace=wrap;html=1;" vertex="1" parent="1">
          <mxGeometry x="600" y="750" width="120" height="40" as="geometry" />
        </mxCell>
        <mxCell id="rThKtoYGeNJ0HFsXFbk3-6" value="Pelicula" style="rounded=0;whiteSpace=wrap;html=1;" vertex="1" parent="1">
          <mxGeometry x="720" y="750" width="120" height="40" as="geometry" />
        </mxCell>
        <mxCell id="rThKtoYGeNJ0HFsXFbk3-7" value="&lt;font style=&quot;font-size: 24px;&quot;&gt;---------&lt;/font&gt;" style="text;html=1;align=center;verticalAlign=middle;resizable=0;points=[];autosize=1;strokeColor=none;fillColor=none;rotation=180;" vertex="1" parent="1">
          <mxGeometry x="610" y="780" width="100" height="40" as="geometry" />
        </mxCell>
        <mxCell id="rThKtoYGeNJ0HFsXFbk3-8" value="&lt;font style=&quot;font-size: 24px;&quot;&gt;---------&lt;/font&gt;" style="text;html=1;align=center;verticalAlign=middle;resizable=0;points=[];autosize=1;strokeColor=none;fillColor=none;rotation=180;" vertex="1" parent="1">
          <mxGeometry x="730" y="780" width="100" height="40" as="geometry" />
        </mxCell>
        <mxCell id="rThKtoYGeNJ0HFsXFbk3-9" value="Disponible" style="rounded=0;whiteSpace=wrap;html=1;" vertex="1" parent="1">
          <mxGeometry x="480" y="520" width="120" height="40" as="geometry" />
        </mxCell>
        <mxCell id="rThKtoYGeNJ0HFsXFbk3-10" value="" style="endArrow=none;html=1;rounded=0;entryX=0.5;entryY=0;entryDx=0;entryDy=0;endFill=0;" edge="1" parent="1" target="rThKtoYGeNJ0HFsXFbk3-6">
          <mxGeometry width="50" height="50" relative="1" as="geometry">
            <mxPoint x="657" y="20" as="sourcePoint" />
            <mxPoint x="750" y="270" as="targetPoint" />
            <Array as="points">
              <mxPoint x="780" y="20" />
              <mxPoint x="780" y="600" />
              <mxPoint x="780" y="680" />
            </Array>
          </mxGeometry>
        </mxCell>
        <mxCell id="rThKtoYGeNJ0HFsXFbk3-11" value="" style="endArrow=classic;html=1;rounded=0;exitX=0.5;exitY=0;exitDx=0;exitDy=0;entryX=0.5;entryY=1;entryDx=0;entryDy=0;endFill=1;" edge="1" parent="1" source="rThKtoYGeNJ0HFsXFbk3-5" target="zI4fZh5RJkNvRMevT8qB-60">
          <mxGeometry width="50" height="50" relative="1" as="geometry">
            <mxPoint x="700" y="370" as="sourcePoint" />
            <mxPoint x="750" y="320" as="targetPoint" />
            <Array as="points">
              <mxPoint x="660" y="680" />
              <mxPoint x="660" y="660" />
              <mxPoint x="300" y="660" />
            </Array>
          </mxGeometry>
        </mxCell>
      </root>
    </mxGraphModel>
  </diagram>
</mxfile>
